<svg xmlns="http://www.w3.org/2000/svg" viewBox="0 0 740 140" width="740" height="140" role="img" aria-label="SOMA Health" font-family="'DM Sans', sans-serif">
  <text x="0" y="116" font-size="120" font-weight="600" letter-spacing="-3.6" fill="#0D1B2A">S</text>
  <svg x="65.04" y="23" width="102" height="102" viewBox="0 0 100 100" overflow="visible">
    <circle cx="50" cy="50" r="39.5" fill="none" stroke="#0D1B2A" stroke-width="15"></circle>
    <g fill="#028090" transform="translate(16 17) scale(0.68)">
      <path d="M 45 27 Q 42 27.5 40 30 Q 37 33 34 37 L 25 50 Q 23 54 26.5 54.5 Q 30 54 32 51 L 39 40 Q 41 38 42 42 L 42 52 L 42 60 L 39 90 Q 39 93 42.7 93 Q 44.5 93 44.5 90 L 47.5 64 Q 50 61 52.5 64 L 55.5 90 Q 55.5 93 59.3 93 Q 61 93 61 90 L 58 60 L 58 52 L 58 42 Q 59 38 61 40 L 68 51 Q 70 54 73.5 54.5 Q 77 54 75 50 L 66 37 Q 63 33 60 30 Q 58 27.5 55 27 Q 50 25.5 45 27 Z"></path>
      <circle cx="50" cy="12.5" r="8.5"></circle>
    </g>
  </svg>
  <text x="160.44" y="116" font-size="120" font-weight="600" letter-spacing="-3.6" fill="#0D1B2A">MA</text>
  <text x="371.28" y="116" font-size="120" font-weight="500" letter-spacing="-3.6" fill="#028090">Health</text>
</svg>
