<svg xmlns="http://www.w3.org/2000/svg" viewBox="0 0 100 100" width="64" height="64" role="img" aria-label="SOMA Health">
  <rect width="100" height="100" rx="22" fill="#0D1B2A"></rect>
  <circle cx="50" cy="50" r="34" fill="none" stroke="#F5F7F8" stroke-width="13"></circle>
  <g fill="#02C39A" transform="translate(20 21) scale(0.585)">
    <path d="M 45 27 Q 42 27.5 40 30 Q 37 33 34 37 L 25 50 Q 23 54 26.5 54.5 Q 30 54 32 51 L 39 40 Q 41 38 42 42 L 42 52 L 42 60 L 39 90 Q 39 93 42.7 93 Q 44.5 93 44.5 90 L 47.5 64 Q 50 61 52.5 64 L 55.5 90 Q 55.5 93 59.3 93 Q 61 93 61 90 L 58 60 L 58 52 L 58 42 Q 59 38 61 40 L 68 51 Q 70 54 73.5 54.5 Q 77 54 75 50 L 66 37 Q 63 33 60 30 Q 58 27.5 55 27 Q 50 25.5 45 27 Z"></path>
    <circle cx="50" cy="12.5" r="8.5"></circle>
  </g>
</svg>
